<?xml version="1.0" encoding="UTF-8" standalone="no"?>
<!-- Created with Inkscape (http://www.inkscape.org/) -->

<svg
   version="1.1"
   id="svg2"
   width="732.38385"
   height="244.70493"
   viewBox="0 0 732.38388 244.70493"
   sodipodi:docname="corvinus_logo_en.svg"
   inkscape:version="1.2.2 (b0a8486541, 2022-12-01)"
   xmlns:inkscape="http://www.inkscape.org/namespaces/inkscape"
   xmlns:sodipodi="http://sodipodi.sourceforge.net/DTD/sodipodi-0.dtd"
   xmlns="http://www.w3.org/2000/svg"
   xmlns:svg="http://www.w3.org/2000/svg">
  <defs
     id="defs6">
    <clipPath
       clipPathUnits="userSpaceOnUse"
       id="clipPath18">
      <path
         d="m 183.45,183.398 h 549.289 v 183.53 H 183.45 Z"
         id="path16" />
    </clipPath>
    <clipPath
       clipPathUnits="userSpaceOnUse"
       id="clipPath36">
      <path
         d="m 183.45,183.398 h 549.289 v 183.53 H 183.45 Z"
         id="path34" />
    </clipPath>
  </defs>
  <sodipodi:namedview
     id="namedview4"
     pagecolor="#505050"
     bordercolor="#ffffff"
     borderopacity="1"
     inkscape:showpageshadow="0"
     inkscape:pageopacity="0"
     inkscape:pagecheckerboard="1"
     inkscape:deskcolor="#505050"
     showgrid="false"
     inkscape:zoom="0.32173044"
     inkscape:cx="57.501553"
     inkscape:cy="121.21949"
     inkscape:window-width="1920"
     inkscape:window-height="1001"
     inkscape:window-x="0"
     inkscape:window-y="0"
     inkscape:window-maximized="1"
     inkscape:current-layer="g10">
    <inkscape:page
       x="0"
       y="0"
       id="page8"
       width="732.38385"
       height="244.70493" />
  </sodipodi:namedview>
  <g
     id="g10"
     inkscape:groupmode="layer"
     inkscape:label="Page 1"
     transform="matrix(1.3333333,0,0,-1.3333333,-244.59999,489.23732)">
    <g
       id="g12">
      <g
         id="g14"
         clip-path="url(#clipPath18)">
        <g
           id="g20"
           transform="translate(300.6992,346.4407)">
          <path
             d="m 0,0 c -0.191,10.962 -9.232,19.693 -20.194,19.501 -5.47,-0.095 -10.377,-2.4 -13.905,-6.041 l 10.141,-4.055 c 1.21,0.511 2.532,0.81 3.925,0.834 5.846,0.102 10.669,-4.554 10.771,-10.401 0.102,-5.845 -4.555,-10.668 -10.401,-10.77 -4.196,-0.073 -7.854,2.311 -9.628,5.821 h -9.826 c 2.167,-8.794 10.176,-15.248 19.616,-15.083 C -8.54,-20.002 0.191,-10.961 0,0"
             style="fill:#868484;fill-opacity:1;fill-rule:nonzero;stroke:none"
             id="path22" />
        </g>
      </g>
    </g>
    <path
       d="m 183.45,183.886 h 120.429 v 13.882 H 183.45 Z"
       style="fill:#868484;fill-opacity:1;fill-rule:nonzero;stroke:none"
       id="path24" />
    <g
       id="g26"
       transform="translate(243.7563,211.6648)">
      <path
         d="M 0,0 13.567,13.567 6.624,20.511 -13.887,0 Z"
         style="fill:#231f20;fill-opacity:1;fill-rule:nonzero;stroke:none"
         id="path28" />
    </g>
    <g
       id="g30">
      <g
         id="g32"
         clip-path="url(#clipPath36)">
        <g
           id="g38"
           transform="translate(248.2959,341.3303)">
          <path
             d="m 0,0 h 32.412 c -0.516,4.42 -3.856,9.011 -7.91,10.632 l -35.597,14.237 c -4.072,1.628 -9.888,0.437 -12.991,-2.662 L -50.582,-4.26 c -18.088,-18.089 -18.088,-47.416 0,-65.504 l 34.4,-34.401 -25.502,-25.501 h 13.888 l 25.198,25.194 -9.257,9.257 4.632,4.631 26.059,-26.059 c 2.068,-2.067 6.114,-3.744 9.037,-3.745 l 36.973,-0.014 -37.052,37.068 0.008,22.485 c 0.001,2.924 -1.675,6.97 -3.742,9.037 l -34.646,34.64 c -1.809,1.808 -1.809,4.741 0,6.55 L 0,-0.028 Z m -9.231,-37.047 27.758,-27.758 v -9.264 l -24.946,24.947 c -1.551,1.55 -2.809,4.584 -2.81,6.777 z"
             style="fill:#231f20;fill-opacity:1;fill-rule:nonzero;stroke:none"
             id="path40" />
        </g>
        <g
           id="g42"
           transform="translate(339.541,194.6423)">
          <path
             d="m 0,0 c 0,-6.953 4.171,-11.243 10.409,-11.243 6.158,0 10.33,4.29 10.33,11.243 0,6.516 -4.41,10.727 -10.33,10.727 C 4.449,10.727 0,6.516 0,0 m 4.688,-0.04 c 0,4.251 2.344,7.112 5.721,7.112 3.338,0 5.602,-2.861 5.602,-7.112 0,-4.569 -2.106,-7.588 -5.602,-7.588 -3.616,0 -5.721,3.019 -5.721,7.588 m 20.54,-10.727 h 4.609 V 6.555 h 5.602 v 3.457 h -5.602 v 1.31 c 0,3.021 1.231,4.531 3.893,4.531 1.192,0 2.066,-0.2 2.901,-0.438 l 1.152,3.337 c -1.113,0.397 -2.702,0.755 -4.172,0.755 -4.886,0 -8.383,-2.225 -8.383,-8.224 V 10.012 H 21.692 V 6.555 h 3.536 z m 22.884,0 h 11.919 c 6.078,0 9.932,2.861 9.932,7.946 0,3.377 -2.105,5.483 -5.244,6.476 2.543,1.113 4.172,3.02 4.172,5.959 0,4.212 -3.06,7.43 -9.576,7.43 H 48.112 Z m 4.728,3.973 V 1.47 h 7.151 c 3.099,0 5.125,-1.391 5.125,-4.013 0,-2.821 -1.986,-4.251 -5.125,-4.251 z m 0,12.038 v 7.827 h 6.237 c 3.378,0 4.966,-1.669 4.966,-3.814 0,-2.265 -1.588,-4.013 -4.966,-4.013 z m 21.056,-5.562 c 0,-7.31 4.887,-10.925 11.363,-10.925 6.476,0 11.363,3.615 11.363,10.925 V 17.044 H 91.854 V -0.318 c 0,-4.411 -2.86,-6.794 -6.595,-6.794 -3.734,0 -6.555,2.383 -6.555,6.794 v 17.362 h -4.808 z m 28.725,-10.449 h 8.581 c 10.132,0 15.138,5.205 15.138,13.946 0,8.661 -5.363,13.865 -15.138,13.865 h -8.581 z m 4.728,4.013 v 19.785 h 4.131 c 6.437,0 10.012,-3.814 10.012,-9.852 0,-6.159 -3.377,-9.933 -10.012,-9.933 z m 19.983,-4.013 h 5.165 l 2.066,5.999 h 11.721 l 2.106,-5.999 h 5.125 l -10.29,27.811 h -5.602 z m 13.032,22.805 h 0.079 l 4.49,-12.952 h -9.058 z m 16.408,-22.805 h 4.768 v 10.568 h 6.555 c 7.469,0 10.172,4.49 10.172,8.661 0,4.291 -2.662,8.582 -10.172,8.582 h -11.323 z m 4.768,14.461 v 9.377 h 6.555 c 3.814,0 5.404,-2.105 5.404,-4.648 0,-2.503 -1.59,-4.729 -5.443,-4.729 z m 18.99,-14.461 h 19.906 v 4.211 h -15.177 v 7.987 h 13.429 v 3.892 h -13.429 v 7.509 h 14.978 v 4.212 H 180.53 Z m 23.123,2.503 c 2.662,-1.669 6.596,-2.979 10.688,-2.979 6.992,0 10.449,3.496 10.449,8.064 0,10.807 -15.654,6.556 -15.654,12.793 0,2.067 1.907,3.696 5.126,3.696 2.741,0 5.363,-0.715 7.707,-1.868 l 1.788,3.814 c -2.781,1.351 -5.999,2.265 -9.654,2.265 -6.238,0 -9.933,-3.537 -9.933,-7.986 0,-10.608 15.653,-6.475 15.653,-12.753 0,-2.225 -1.827,-3.814 -5.482,-3.814 -3.06,0 -5.92,1.033 -8.383,2.543 z m 31.388,-2.503 h 4.768 v 23.56 h 9.614 v 4.251 h -23.997 v -4.251 h 9.615 z"
             style="fill:#868484;fill-opacity:1;fill-rule:nonzero;stroke:none"
             id="path44" />
        </g>
        <g
           id="g46"
           transform="translate(339.0844,327.5164)">
          <path
             d="m 0,0 c 0,-13.79 9.878,-24.131 24.198,-24.131 7.623,0 13.524,2.585 18.695,7.359 l -7.425,7.822 c -2.718,-2.652 -6.033,-4.442 -10.541,-4.442 -7.491,0 -12.066,5.171 -12.066,13.392 0,8.088 4.707,13.259 12.066,13.259 4.707,0 7.69,-1.923 10.474,-4.243 l 7.028,8.552 C 37.39,21.678 31.623,23.999 24.662,23.999 10.276,23.999 0,13.59 0,0 m 42.495,-0.066 c 0,-13.259 9.546,-24.065 24.528,-24.065 15.049,0 24.529,10.806 24.529,24.065 0,13.258 -9.546,24.065 -24.529,24.065 -14.916,0 -24.528,-10.807 -24.528,-24.065 m 12.993,0 c 0,7.624 4.177,13.391 11.535,13.391 7.425,0 11.602,-5.767 11.602,-13.391 0,-7.624 -4.243,-13.392 -11.602,-13.392 -7.292,0 -11.535,5.768 -11.535,13.392 M 95.927,-23.27 h 12.861 v 16.441 h 7.823 l 6.098,-16.441 H 136.3 l -8.287,18.563 c 5.437,2.585 7.823,7.292 7.823,12.596 0,7.823 -4.773,15.248 -19.026,15.248 H 95.927 Z m 12.861,25.458 v 11.004 h 7.889 c 3.779,0 6.298,-1.79 6.298,-5.502 0,-3.58 -2.387,-5.502 -6.298,-5.502 z m 43.754,-25.458 h 14.122 l 16.175,46.407 H 169.05 l -9.414,-31.291 h -0.133 l -9.347,31.291 h -13.789 z m 33.346,0 h 12.861 v 46.406 h -12.861 z m 23.336,0 H 221.29 V 2.983 l 17.435,-26.253 h 12.066 V 23.137 H 238.725 V -3.249 l -17.369,26.386 h -12.132 z m 51.245,17.966 c 0,-12.795 8.221,-18.827 20.42,-18.827 12.264,0 20.418,6.032 20.418,18.827 v 28.441 h -12.86 V -5.37 c 0,-4.839 -2.852,-7.955 -7.558,-7.955 -4.773,0 -7.492,3.116 -7.492,7.955 v 28.507 h -12.928 z m 46.141,-13.457 c 4.508,-2.851 12.265,-5.37 19.357,-5.37 12.398,0 18.629,6.43 18.629,14.585 0,17.7 -23.667,13.126 -23.667,19.225 0,1.856 1.857,3.248 5.105,3.248 3.58,0 7.624,-0.795 12.132,-3.049 l 4.64,9.878 c -5.9,2.718 -11.469,4.243 -17.435,4.243 -11.203,0 -17.701,-6.563 -17.701,-14.453 0,-17.502 23.667,-13.06 23.667,-19.292 0,-1.988 -2.054,-3.248 -5.436,-3.248 -4.109,0 -9.082,1.724 -13.259,4.11 z"
             style="fill:#231f20;fill-opacity:1;fill-rule:nonzero;stroke:none"
             id="path48" />
        </g>
        <g
           id="g50"
           transform="translate(340.9399,257.3669)">
          <path
             d="m 0,0 c 0,-12.795 8.221,-18.828 20.419,-18.828 12.264,0 20.418,6.033 20.418,18.828 V 28.44 H 27.976 V -0.066 c 0,-4.84 -2.851,-7.956 -7.557,-7.956 -4.773,0 -7.492,3.116 -7.492,7.956 V 28.44 H 0 Z M 48.726,-17.966 H 60.791 V 8.286 L 78.227,-17.966 H 90.292 V 28.44 H 78.227 V 2.055 L 60.857,28.44 H 48.726 Z m 51.775,0 h 12.861 V 28.44 h -12.861 z m 31.888,0 h 14.121 l 16.176,46.406 h -13.789 l -9.414,-31.292 h -0.133 l -9.348,31.292 h -13.789 z m 31.821,0 h 35.203 v 11.005 h -22.408 v 7.756 h 19.623 v 9.547 h -19.623 v 7.093 h 22.208 V 28.44 H 164.21 Z m 43.158,0 h 12.861 v 16.441 h 7.823 l 6.099,-16.441 h 13.591 l -8.287,18.563 c 5.436,2.585 7.822,7.292 7.822,12.595 0,7.823 -4.773,15.248 -19.026,15.248 h -20.883 z m 12.861,25.457 v 11.005 h 7.889 c 3.779,0 6.299,-1.79 6.299,-5.503 0,-3.58 -2.387,-5.502 -6.299,-5.502 z m 30.362,-20.949 c 4.508,-2.851 12.265,-5.37 19.359,-5.37 12.396,0 18.629,6.431 18.629,14.585 0,17.7 -23.667,13.126 -23.667,19.225 0,1.856 1.855,3.248 5.104,3.248 3.58,0 7.624,-0.795 12.132,-3.049 l 4.641,9.878 c -5.901,2.718 -11.469,4.243 -17.436,4.243 -11.204,0 -17.7,-6.563 -17.7,-14.452 0,-17.502 23.667,-13.061 23.667,-19.292 0,-1.989 -2.056,-3.248 -5.437,-3.248 -4.11,0 -9.082,1.723 -13.258,4.11 z m 43.29,-4.508 h 12.861 V 28.44 h -12.861 z m 31.159,0 h 12.728 V 17.17 H 352.22 V 28.44 H 310.587 V 17.17 h 14.453 z m 36.594,0 h 12.993 V 0.53 l 17.171,27.91 H 377.28 L 368.263,13.325 H 368.13 L 359.048,28.44 H 344.463 L 361.634,0.53 Z"
             style="fill:#231f20;fill-opacity:1;fill-rule:nonzero;stroke:none"
             id="path52" />
        </g>
      </g>
    </g>
  </g>
</svg>
