<?xml version="1.0" standalone="no"?>
<!DOCTYPE svg PUBLIC "-//W3C//DTD SVG 20010904//EN"
 "http://www.w3.org/TR/2001/REC-SVG-20010904/DTD/svg10.dtd">
<svg version="1.0" xmlns="http://www.w3.org/2000/svg"
 width="640.000000pt" height="1280.000000pt" viewBox="0 0 640.000000 1280.000000"
 preserveAspectRatio="xMidYMid meet">
<metadata>
Created by potrace 1.15, written by Peter Selinger 2001-2017
</metadata>
<g transform="translate(0.000000,1280.000000) scale(0.100000,-0.100000)"
fill="#000000" stroke="none">
<path d="M5146 12777 c-28 -112 -136 -1511 -136 -1764 0 -114 -3 -133 -32
-217 -37 -109 -42 -185 -13 -233 32 -54 55 -58 309 -55 126 1 231 4 233 5 5 5
23 106 34 187 5 41 14 221 19 400 11 353 19 499 51 952 l22 297 -91 108 c-111
133 -228 248 -306 302 -68 47 -82 50 -90 18z"/>
<path d="M4495 10776 c136 -65 320 -166 399 -218 32 -21 60 -37 62 -35 2 2 -9
22 -25 44 -33 46 -95 98 -162 137 -48 27 -335 126 -366 126 -10 0 32 -24 92
-54z"/>
<path d="M4515 10560 c-16 -6 -70 -30 -120 -53 l-90 -44 130 -7 c125 -7 381 6
470 23 l40 8 -30 12 c-110 46 -338 81 -400 61z"/>
<path d="M4870 10459 c-61 -12 -98 -27 -139 -57 -51 -38 -61 -74 -61 -214 l1
-123 50 55 c89 97 239 312 239 342 0 10 -30 9 -90 -3z"/>
<path d="M4961 10429 c-19 -63 -15 -181 7 -231 18 -41 109 -167 167 -233 l26
-30 -6 60 c-9 82 -48 239 -78 315 -25 60 -86 160 -98 160 -3 0 -11 -18 -18
-41z"/>
<path d="M5110 10363 c0 -21 16 -101 36 -178 21 -82 38 -177 41 -229 6 -84 5
-88 -13 -78 -52 28 -129 132 -214 286 -31 56 -60 100 -65 99 -6 -2 -13 -51
-18 -110 -17 -252 -158 -1543 -197 -1808 -17 -122 -44 -218 -114 -412 -28 -77
-33 -142 -15 -160 8 -8 35 -10 78 -6 36 3 133 -2 215 -11 239 -26 327 -20 340
21 25 78 188 1140 246 1598 45 360 80 772 80 956 l0 36 -142 17 c-79 9 -169
16 -200 16 l-58 0 0 -37z"/>
<path d="M3005 9593 c-4 -10 -11 -310 -16 -668 -10 -838 -10 -841 -74 -991
-19 -45 -35 -86 -35 -93 0 -15 62 -14 245 4 83 8 206 15 273 15 l124 0 -6 543
c-4 298 -9 625 -12 726 l-6 183 -132 86 c-157 103 -336 212 -346 212 -4 0 -11
-8 -15 -17z"/>
<path d="M3027 7739 c-55 -13 -75 -26 -94 -62 -16 -28 -18 -58 -16 -227 1
-196 29 -629 59 -911 20 -197 43 -283 92 -356 68 -101 83 -139 92 -236 6 -56
14 -96 23 -105 33 -32 285 -23 361 13 55 26 61 54 60 280 -2 190 -11 362 -69
1229 -14 203 -25 372 -25 377 0 12 -433 10 -483 -2z"/>
<path d="M4537 7708 c-20 -15 -53 -171 -157 -733 -118 -641 -153 -850 -225
-1365 -49 -342 -50 -357 -35 -412 12 -42 21 -46 173 -72 72 -13 111 -14 219
-5 73 6 146 16 163 23 30 13 32 16 53 137 28 156 74 444 152 944 36 229 90
524 131 715 110 512 128 601 131 669 3 62 2 64 -24 72 -26 7 -206 20 -453 34
-84 5 -114 3 -128 -7z"/>
<path d="M2902 6188 c47 -51 112 -128 146 -171 56 -71 62 -76 62 -50 -1 74
-80 176 -205 262 -40 28 -76 51 -80 51 -4 0 31 -42 77 -92z"/>
<path d="M2455 6025 c-5 -2 -41 -7 -80 -11 l-70 -7 45 -14 c144 -43 623 -133
637 -119 9 9 -166 96 -253 125 -76 26 -107 31 -180 30 -49 0 -93 -2 -99 -4z"/>
<path d="M2990 5998 c0 -33 30 -86 65 -112 20 -16 38 -26 41 -24 2 2 -17 33
-42 69 -59 82 -64 87 -64 67z"/>
<path d="M2708 5795 c-94 -26 -140 -57 -245 -164 -56 -58 -100 -107 -98 -109
15 -15 635 258 635 280 0 13 -240 8 -292 -7z"/>
<path d="M3023 5731 c-77 -61 -152 -146 -178 -203 -22 -47 -25 -66 -25 -178
l1 -125 29 35 c45 55 147 228 185 316 33 76 60 194 44 194 -4 0 -29 -17 -56
-39z"/>
<path d="M3118 5667 c-9 -36 -38 -109 -63 -164 l-47 -98 6 -105 c8 -136 82
-1079 101 -1279 20 -211 0 -196 258 -196 l202 0 83 48 c62 37 82 54 82 70 0
18 -32 460 -109 1515 -10 139 -22 256 -25 260 -4 4 -112 8 -239 10 l-232 4
-17 -65z"/>
<path d="M5120 5239 c-41 -11 -79 -25 -85 -31 -7 -8 -5 -9 8 -4 10 3 125 6
255 6 138 0 231 4 222 9 -25 15 -199 41 -264 40 -34 0 -95 -9 -136 -20z"/>
<path d="M4990 5041 c0 -10 136 -134 240 -217 152 -122 280 -214 280 -202 0 7
-23 59 -51 115 -58 117 -99 159 -207 216 -102 53 -262 107 -262 88z"/>
<path d="M4115 5030 c-12 -4 -26 -15 -33 -23 -17 -20 -141 -931 -129 -943 3
-3 25 0 48 7 31 10 118 13 302 12 141 -1 257 2 258 5 0 4 15 124 33 267 18
143 32 261 31 263 -1 1 -40 -21 -86 -49 -84 -53 -335 -181 -376 -194 -13 -3
-23 -2 -23 3 0 12 101 172 177 279 34 49 112 144 172 213 80 89 107 126 97
132 -47 26 -421 49 -471 28z"/>
<path d="M4725 5008 c-82 -64 -219 -206 -294 -303 -81 -104 -141 -189 -141
-199 0 -23 270 144 324 201 47 49 116 170 146 259 30 88 27 92 -35 42z"/>
<path d="M4887 5001 c-9 -43 -9 -509 -1 -590 4 -33 10 -61 14 -61 4 0 38 60
75 134 60 118 68 143 73 205 3 43 0 89 -8 117 -13 47 -65 133 -117 193 l-30
35 -6 -33z"/>
<path d="M4050 4025 c-36 -7 -76 -18 -90 -24 -24 -9 -24 -10 -3 -10 23 -1 336
36 363 43 44 11 -215 2 -270 -9z"/>
<path d="M4320 3978 c-138 -14 -371 -47 -381 -53 -23 -15 -2 -24 89 -40 207
-37 294 -76 398 -179 l73 -71 6 35 c17 103 41 311 37 315 -8 7 -123 4 -222 -7z"/>
<path d="M3880 3844 c0 -18 555 -262 568 -249 10 9 -120 135 -163 157 -66 34
-144 57 -263 78 -122 21 -142 23 -142 14z"/>
<path d="M3598 3766 c-36 -30 -97 -93 -136 -140 -75 -91 -187 -254 -180 -261
7 -7 169 92 232 142 62 48 105 109 135 188 25 65 36 125 24 125 -5 0 -39 -24
-75 -54z"/>
<path d="M3785 3768 c12 -94 45 -250 77 -361 26 -88 34 -106 44 -95 16 16 80
181 89 229 9 50 -10 113 -48 156 -34 39 -143 123 -159 123 -6 0 -7 -20 -3 -52z"/>
<path d="M3340 3748 c-80 -4 -158 -11 -175 -16 l-30 -8 -3 -120 c-4 -118 5
-442 33 -1202 l15 -393 33 -32 c18 -18 40 -43 49 -57 l16 -25 216 2 c190 2
223 5 261 22 32 14 43 24 40 38 -4 19 -16 338 -40 1103 -16 499 -24 650 -34
650 -4 0 -13 -17 -20 -37 -38 -105 -135 -208 -274 -291 -77 -47 -260 -142
-272 -142 -7 0 33 79 90 175 44 75 145 213 216 298 17 21 30 39 28 40 -2 1
-69 -1 -149 -5z"/>
<path d="M4035 3659 c32 -90 10 -187 -96 -416 l-41 -88 -23 45 c-27 51 -31 47
-44 -49 -8 -63 -7 -66 30 -135 66 -125 87 -270 54 -380 -8 -27 -14 -51 -12
-53 10 -9 310 -25 359 -19 91 12 103 27 122 153 22 148 96 745 96 776 0 22 -8
29 -57 47 -32 12 -133 53 -225 91 -92 38 -169 69 -172 69 -3 0 1 -19 9 -41z"/>
<path d="M2348 3509 c-3 -13 -31 -136 -61 -274 -31 -137 -59 -270 -62 -295
l-7 -45 21 25 c33 41 107 200 126 273 15 55 17 88 11 189 -7 123 -18 173 -28
127z"/>
<path d="M1804 3030 c22 -25 96 -103 165 -175 109 -114 121 -124 96 -80 -43
76 -89 129 -178 203 -116 96 -127 103 -83 52z"/>
<path d="M3813 2908 c3 -35 17 -93 31 -129 l25 -64 0 56 c1 60 -31 183 -51
195 -8 5 -10 -11 -5 -58z"/>
<path d="M3070 2900 c19 -13 30 -13 30 0 0 6 -10 10 -22 10 -19 0 -20 -2 -8
-10z"/>
<path d="M3821 2644 c-1 -17 6 -37 14 -44 15 -13 15 -9 -8 60 -3 8 -6 1 -6
-16z"/>
<path d="M1335 2574 c-54 -9 -234 -55 -272 -69 l-38 -15 40 5 c115 14 586 52
695 56 l35 1 -40 9 c-45 10 -374 20 -420 13z"/>
<path d="M2313 2473 c-22 -15 512 -84 635 -82 l57 1 -70 19 c-147 40 -290 61
-450 65 -88 3 -166 1 -172 -3z"/>
<path d="M3862 2443 c-21 -42 -25 -90 -23 -309 2 -182 0 -234 -11 -240 -7 -5
-31 -17 -53 -26 -40 -17 -40 -17 -10 -18 61 -1 59 6 67 -297 3 -153 11 -514
17 -803 6 -289 14 -564 17 -612 6 -85 8 -88 31 -88 28 0 88 24 97 38 14 23 46
250 196 1368 33 248 73 529 90 625 38 223 50 340 36 345 -10 3 -400 34 -433
34 -7 0 -16 -8 -21 -17z"/>
<path d="M1765 2393 c-11 -3 -101 -34 -200 -70 -208 -75 -434 -182 -526 -249
-96 -71 -271 -216 -266 -221 10 -10 693 340 902 463 129 76 147 91 90 77z"/>
<path d="M2111 2376 c2 -2 141 -64 309 -136 382 -166 615 -274 709 -328 l72
-42 -3 28 c-3 23 -15 33 -88 69 -224 111 -571 258 -858 364 -124 46 -151 55
-141 45z"/>
<path d="M1904 2341 c-111 -40 -180 -94 -219 -171 -35 -68 -89 -237 -125 -390
-17 -74 -36 -147 -40 -162 -5 -16 -5 -28 -1 -28 13 0 215 212 250 263 65 95
189 370 216 480 9 33 -6 35 -81 8z"/>
<path d="M3081 2296 c-17 -18 -20 -26 -10 -26 24 0 41 16 37 35 -2 14 -7 13
-27 -9z"/>
<path d="M3174 1187 c9 -762 21 -1134 36 -1152 23 -28 111 -37 335 -33 162 2
226 7 244 17 l24 13 -6 257 c-3 141 -11 531 -17 866 -7 336 -13 616 -16 623
-3 10 -68 12 -305 12 l-302 -1 7 -602z"/>
</g>
</svg>
